<?xml version="1.0" encoding="UTF-8" standalone="no"?>
<!-- Created with Inkscape (http://www.inkscape.org/) -->

<svg
   width="349.14151mm"
   height="353.50415mm"
   viewBox="0 0 349.14151 353.50415"
   version="1.1"
   id="svg1"
   inkscape:version="1.3.2 (091e20e, 2023-11-25, custom)"
   sodipodi:docname="Logo.svg"
   xmlns:inkscape="http://www.inkscape.org/namespaces/inkscape"
   xmlns:sodipodi="http://sodipodi.sourceforge.net/DTD/sodipodi-0.dtd"
   xmlns="http://www.w3.org/2000/svg"
   xmlns:svg="http://www.w3.org/2000/svg">
  <sodipodi:namedview
     id="namedview1"
     pagecolor="#ffffff"
     bordercolor="#000000"
     borderopacity="0.25"
     inkscape:showpageshadow="2"
     inkscape:pageopacity="0.0"
     inkscape:pagecheckerboard="0"
     inkscape:deskcolor="#d1d1d1"
     inkscape:document-units="mm"
     inkscape:zoom="0.37460368"
     inkscape:cx="25.360136"
     inkscape:cy="700.74059"
     inkscape:window-width="1920"
     inkscape:window-height="1051"
     inkscape:window-x="-9"
     inkscape:window-y="-9"
     inkscape:window-maximized="1"
     inkscape:current-layer="layer1" />
  <defs
     id="defs1" />
  <g
     inkscape:label="圖層 1"
     inkscape:groupmode="layer"
     id="layer1">
    <path
       style="fill:#39a34a;fill-opacity:1;fill-rule:nonzero;stroke:none;stroke-width:0.264583"
       d="m 203.9058,237.47458 c 0,0 0,0 0,0 0.0882,0.0882 0.0882,0.1764 0.1764,0.26458 0.0882,0.1764 0.1764,0.35277 0.26458,0.61736 3.79236,9.96598 8.64307,20.02014 14.37569,29.72154 2.46946,4.14512 5.11529,8.29027 8.02571,12.25902 2.73402,3.88056 5.73262,7.67292 8.99583,11.46527 7.49652,8.90765 16.22777,16.93333 25.84096,23.8125 4.49792,3.26321 9.17223,6.17363 13.84654,8.81946 4.7625,2.64583 9.78959,4.93887 14.72846,6.96735 5.02708,1.94027 10.40696,3.61598 16.40417,5.02709 5.20348,1.32291 10.93612,2.20485 17.99166,2.82223 0.70557,0.0882 1.49932,0.0882 2.20488,0.0882 0.0882,0 0.0882,0 0.0882,0 0,0 0,0 0,0 0.44098,0 0.79375,-0.0882 0.97014,-0.35277 0.17638,-0.0882 0.26459,-0.26458 0.17638,-0.52916 0,-0.3528 -0.52917,-0.70557 -0.88194,-0.88196 -0.35277,-0.17638 -0.70556,-0.26459 -1.05833,-0.35277 -0.0882,0 -0.26459,0 -0.35277,0 -0.44098,-0.0882 -0.97015,-0.1764 -1.49932,-0.26459 -0.88193,-0.17639 -1.85208,-0.35277 -2.82223,-0.52916 -5.37985,-1.23473 -12.61179,-3.08682 -19.49095,-5.90902 -4.58613,-1.85209 -9.08405,-3.88057 -13.31738,-6.17363 -4.32152,-2.29304 -8.55485,-4.7625 -12.61179,-7.49652 -4.9389,-3.3514 -9.7014,-7.14375 -14.72848,-11.64167 -3.88056,-3.43958 -7.67292,-7.32014 -11.2889,-11.37708 -3.43958,-3.88056 -6.87916,-8.02569 -10.14235,-12.5236 -4.5861,-6.26182 -8.73125,-12.8764 -12.5236,-19.75557 -3.70417,-6.79098 -7.05557,-13.93473 -9.96598,-21.34306 -1.94027,-4.93887 -3.79236,-10.14235 -5.46807,-15.34583 -1.5875,-5.11527 -3.08679,-10.40694 -4.4097,-15.7868 -0.26459,-1.23472 -0.52917,-2.55764 -0.88196,-3.79236 -0.0882,-0.61736 -0.17638,-1.14653 -0.35277,-1.76389 0,0 0,0 0,0 0.26458,-0.0882 0.26458,-0.0882 0.26458,-0.0882 0.0882,0 0.0882,0 0.0882,0 0,0.0882 0.0882,0.26459 0.17639,0.35278 0.0882,0.26459 0.26459,0.61736 0.35277,0.88195 0.70557,1.41111 1.32292,2.82222 1.9403,4.23333 1.49929,3.08681 2.91041,6.26181 4.4097,9.26042 3.3514,6.70277 6.79098,12.34722 10.75973,17.19791 3.26319,4.14515 6.96736,6.96736 11.2889,8.55486 4.23333,1.5875 8.46667,2.46946 12.61179,2.73404 4.23333,0.17637 8.55488,-0.26458 12.7,-1.49931 10.93613,-3.08682 19.13821,-9.7014 24.42988,-19.75556 0.44095,-0.79375 0.61735,-1.85208 0.61735,-2.91042 0,-2.91041 -1.32292,-5.46805 -2.55765,-7.40833 -1.5875,-2.64583 -3.35137,-5.29167 -5.11527,-7.8493 -1.14652,-1.76389 -2.46943,-3.70417 -3.61598,-5.55625 -1.76387,-2.64584 -3.26318,-5.37987 -4.5861,-7.67292 -0.26458,-0.44097 -0.44098,-1.05833 -0.52917,-1.6757 -0.0882,-0.26458 -0.17639,-0.52916 -0.26458,-0.88194 0,0 0,0 0,0 0,0 0,0 0,0 0.26458,-0.0882 0.52917,-0.17639 0.70556,-0.26458 0.44096,-0.17639 0.88194,-0.26459 1.23471,-0.35278 0.44098,-0.0882 0.88196,-0.0882 1.32292,-0.17639 1.67571,-0.26458 3.43958,-0.52917 5.11529,-0.61736 2.20485,-0.0882 4.40971,-0.0882 6.61458,-0.0882 2.73402,-0.0882 5.55625,-0.0882 8.37846,-0.26458 2.46946,-0.17639 5.11529,-0.52917 8.46667,-1.23472 2.55764,-0.52917 4.49791,-2.02847 5.55625,-4.49792 3.88056,-8.37847 4.7625,-17.19791 2.64583,-26.01736 -2.55762,-10.75972 -8.64304,-19.13819 -18.25625,-24.95903 -1.67569,-1.05833 -3.61596,-1.85208 -5.46804,-2.46944 -5.46806,-1.6757 -11.20071,-1.41111 -16.66875,-0.97014 -5.20348,0.35278 -10.58333,1.05833 -15.78681,2.11667 -8.46667,1.67569 -16.0514,3.43958 -23.01875,5.29166 -9.87777,2.64584 -18.43265,5.46806 -26.01736,8.81945 -2.82223,1.14653 -5.55625,2.64583 -8.20208,4.05694 -0.44098,0.26459 -0.88196,0.44097 -1.23473,0.70556 -1.49931,0.70555 -2.29306,1.94028 -2.20485,3.61597 0,0.88194 -0.0882,1.76389 -0.0882,2.64583 -0.0882,0.70556 -0.0882,1.49931 -0.0882,2.29306 -0.0882,4.93889 -0.0882,9.96597 -0.0882,14.81667 0,1.76388 0,3.52777 0,5.29166 0,0.61736 0,1.14653 0,1.6757 0,0.79375 0,0.79375 0,0.79375 0,0 0,0 0,0 -0.35279,-0.17639 -0.44098,-0.35278 -0.52916,-0.61736 -0.3528,-0.97014 -0.70557,-2.02848 -1.05834,-2.99862 -0.79375,-2.11666 -1.5875,-4.32152 -2.38125,-6.52638 -1.49931,-3.79237 -3.26321,-7.84931 -5.64446,-11.55348 -1.14652,-1.76389 -2.73402,-2.55764 -4.85068,-2.29305 -0.1764,0 -0.35277,0 -0.52917,0.0882 -1.7639,0.17639 -3.61598,0.35278 -5.46806,0.70556 -6.61459,1.41111 -13.67013,3.26319 -22.04861,6.08541 -12.96458,4.32153 -24.16527,8.90764 -34.21943,14.02292 -5.82084,2.91042 -12.52363,6.61458 -18.34446,11.46528 -2.29304,1.94028 -5.11527,4.58611 -6.79096,8.20208 -2.02848,4.40972 -3.26321,8.64306 -3.70417,12.96459 -0.70556,6.17361 0,12.17083 2.02846,17.63888 3.26321,9.17223 9.34863,16.31598 17.90348,21.34306 2.38125,1.4111 4.85069,1.49931 7.40833,0.44098 2.29307,-0.97015 4.23334,-1.94029 5.90902,-2.99863 2.20488,-1.4111 4.40973,-2.9986 6.61459,-4.4097 2.02848,-1.41113 4.05696,-2.82223 6.17362,-4.14515 2.11667,-1.4111 4.40971,-2.73402 6.96736,-3.96875 0.88193,-0.44098 1.32291,-0.52917 1.67568,-0.35277 0.44098,0.17637 0.61738,0.70554 0.79375,1.67569 0.97015,3.88056 1.05834,7.84931 1.05834,11.81806 0,0.0882 0,0.0882 0,0.0882 0,5.46806 0,11.20068 1.05833,16.75693 0.35279,1.85209 1.05833,3.3514 1.94029,4.58613 0.97013,1.23471 2.29304,2.20485 4.05694,2.91042 7.32015,2.8222 14.1111,3.79235 20.72569,2.8222 9.87779,-1.32291 18.16806,-5.73262 24.69446,-12.96458 5.46804,-6.1736 8.11387,-12.43542 7.9375,-19.31458 0,-1.32292 0,-2.55763 0,-3.88054 0,-0.52917 0,-1.14655 0,-1.7639 0,0 0,0 0,0 z"
       id="path10" />
    <path
       style="fill:#39a34a;fill-opacity:1;fill-rule:nonzero;stroke:none;stroke-width:0.264583"
       d="m 78.14053,106.24125 c -2.9986,0 -6.70277,0.17639 -10.31875,1.05833 -3.08681,0.79375 -4.93889,2.20486 -6.08541,4.67431 -3.08682,7.14375 -4.14515,14.02291 -3.43959,20.90208 1.32292,11.46528 6.61459,20.81389 15.875,27.86944 4.32152,3.35139 8.81944,5.11528 13.75834,5.55625 5.11527,0.44098 10.58333,0.35278 16.58056,-0.35277 8.29027,-0.97014 16.75694,-2.55764 25.2236,-4.67431 6.26182,-1.5875 11.37709,-2.99861 16.13959,-4.40972 5.73264,-1.76389 10.9361,-3.61597 15.78681,-5.64445 2.9986,-1.14652 5.90902,-2.64583 8.81944,-4.05694 0.88193,-0.44097 1.76389,-0.88195 2.64583,-1.23472 2.29306,-1.14653 3.26319,-2.91042 2.9986,-5.37986 -0.0882,-0.61737 -0.17637,-1.23473 -0.26458,-1.85209 -0.0882,-0.97014 -0.17637,-2.02847 -0.35277,-2.99861 -1.23473,-7.14375 -3.26319,-14.55208 -6.08542,-22.75417 -2.55764,-7.23194 -5.29166,-14.463878 -8.11389,-21.695828 -1.5875,-3.88055 -3.43959,-7.76111 -5.29167,-11.55347 -0.26458,-0.44097 -0.26458,-0.44097 -0.26458,-0.44097 -3.70417,-7.58473 -7.40834,-13.581947 -11.55346,-18.78542 -3.70417,-4.7625 -8.46667,-7.849306 -14.55208,-9.613194 -7.76113,-2.204862 -15.43405,-2.204862 -22.75417,0 -10.23056,3.175 -18.07988,9.525 -23.45973,18.961804 -1.14652,1.94028 -1.23473,4.05695 -0.44098,6.4382 1.23473,3.43958 2.99863,6.43819 4.67431,8.90763 1.23473,1.76389 2.46944,3.52778 3.61598,5.29167 1.5875,2.20486 3.175,4.49792 4.58611,6.79097 1.14652,1.76389 2.11666,3.704168 2.91041,5.468058 0.35277,0.61736 0.35277,1.05833 0.1764,1.41111 -0.1764,0.35278 -0.52917,0.61736 -1.23473,0.79375 -1.05833,0.35278 -2.20485,0.61736 -3.3514,0.70556 -3.43958,0.17638 -6.96735,0.35277 -10.40693,0.44097 -1.23473,0.0882 -2.55765,0.0882 -3.79236,0.17639 0,0 0,0 0,0 -0.61737,0 -1.32291,0 -2.02848,0 z"
       id="path11" />
    <path
       style="fill:#39a34a;fill-opacity:1;fill-rule:nonzero;stroke:none;stroke-width:0.264583"
       d="m 206.37526,19.457918 c -3.175,0 -6.35,0.44097 -9.61321,1.23472 -8.64304,2.11667 -15.96318,6.70278 -21.60762,13.75833 -4.23333,5.203474 -6.43821,10.583337 -6.70279,16.40417 -0.26459,6.702777 0.17639,13.581944 1.23473,20.549304 1.23473,7.76111 2.91041,15.69861 5.02708,23.54792 1.5875,6.085408 3.175,11.465278 4.7625,16.404158 1.85208,5.73264 3.79235,11.02431 5.99723,15.9632 0.79375,1.85208 1.76387,3.79236 2.73402,5.55625 0.44098,0.79375 0.88194,1.5875 1.23473,2.29305 0.97012,1.76389 2.46944,2.55764 4.40971,2.38125 0.26458,-0.0882 0.52916,-0.0882 0.79375,-0.0882 2.46946,-0.26458 5.02708,-0.52917 7.49654,-1.05833 7.14375,-1.49931 14.64027,-3.61598 24.25346,-6.96736 9.96598,-3.52778 18.69723,-7.05556 26.54654,-10.84792 6.1736,-2.99861 13.31735,-6.70278 19.84375,-11.55347 2.64583,-1.94028 4.7625,-3.96875 6.43819,-6.08542 1.94027,-2.469438 3.26318,-4.938888 4.23333,-7.761108 3.26319,-9.70139 3.08681,-19.22639 -0.61735,-28.310417 -3.5278,-8.819446 -9.61321,-15.610417 -18.16807,-20.196529 -1.4111,-0.79375 -2.82223,-1.058334 -4.23333,-0.705554 -1.14652,0.352777 -2.29306,0.705554 -3.3514,1.058333 -3.52777,1.499304 -6.79095,3.79236 -9.96595,5.909027 -0.70557,0.440973 -1.41113,0.97014 -2.20488,1.499306 -3.79235,2.557638 -7.40833,4.850694 -11.02429,7.055554 -0.61738,0.440973 -1.32292,0.617363 -2.11667,0.881946 -0.44098,0.08819 -0.79375,0.264584 -1.23473,0.440971 0,0 0,0 0,0 0,0 0,0 0,0 -0.0882,-0.352777 -0.26458,-0.705554 -0.35277,-0.970137 -0.17639,-0.617363 -0.35279,-1.058334 -0.35279,-1.5875 -0.0882,-0.617363 -0.0882,-0.617363 -0.0882,-0.617363 -0.35277,-3.439583 -0.61735,-6.879167 -0.79375,-10.31875 -0.0882,-1.763887 -0.17639,-3.615971 -0.17639,-5.37986 -0.0882,-2.293057 -0.0882,-4.674307 -0.26459,-7.055561 -0.17637,-2.38125 -0.79375,-4.7625 -1.49929,-7.40833 -0.35279,-1.5875 -1.41112,-2.91042 -2.91041,-3.61597 -5.64446,-2.91042 -11.64167,-4.40972 -17.72709,-4.40972 z"
       id="path12" />
  </g>
</svg>
